<?xml version="1.0" standalone="no"?>
<!DOCTYPE svg PUBLIC "-//W3C//DTD SVG 20010904//EN"
 "http://www.w3.org/TR/2001/REC-SVG-20010904/DTD/svg10.dtd">
<svg version="1.0" xmlns="http://www.w3.org/2000/svg"
 width="990.000000pt" height="1008.000000pt" viewBox="0 0 990.000000 1008.000000"
 preserveAspectRatio="xMidYMid meet">

<g transform="translate(0.000000,1008.000000) scale(0.100000,-0.100000)"
fill="#000000" stroke="none">
<path d="M4715 10074 c-354 -27 -480 -43 -715 -90 -1599 -319 -2931 -1406
-3588 -2929 -199 -461 -318 -909 -384 -1447 -19 -160 -22 -231 -22 -568 0
-424 11 -567 75 -918 225 -1246 922 -2381 1924 -3132 737 -552 1544 -867 2475
-967 229 -24 700 -24 935 1 1136 118 2148 592 2957 1384 391 383 702 802 954
1287 300 577 481 1198 550 1885 34 333 20 836 -32 1190 -164 1120 -676 2126
-1481 2911 -802 783 -1829 1262 -2943 1374 -147 15 -598 27 -705 19z m3568
-3210 c157 -99 194 -124 182 -124 -6 0 -104 -2 -220 -3 l-210 -2 -3 -852 c-1
-469 -4 -853 -6 -853 -5 0 -104 61 -241 147 l-80 50 -5 754 -5 754 -140 0
-140 0 -1 -440 c0 -242 -1 -625 -2 -852 l-2 -412 -37 21 c-21 12 -95 57 -165
101 l-128 79 0 134 0 134 -32 -8 c-18 -4 -71 -7 -118 -6 -109 1 -168 22 -325
116 -279 166 -347 224 -408 347 -30 62 -32 71 -32 181 0 114 1 117 38 192 49
101 124 176 219 222 188 90 336 70 578 -78 l75 -45 3 146 c1 81 0 153 -2 160
-4 11 -130 13 -658 11 l-653 -3 0 -1240 0 -1240 1338 -3 1337 -2 0 -45 0 -45
-316 -2 -315 -3 1 -280 c0 -243 3 -284 18 -314 24 -49 60 -71 124 -78 69 -7
129 18 182 77 75 83 81 104 84 308 4 209 -8 191 102 148 l55 -21 3 -429 c1
-269 -2 -442 -8 -466 -27 -99 -129 -193 -248 -230 -121 -37 -317 -23 -422 30
-86 44 -170 150 -170 215 1 101 126 210 254 221 l51 5 43 -62 c24 -33 41 -63
39 -65 -2 -2 -30 -9 -62 -15 -133 -24 -225 -77 -225 -128 0 -40 38 -91 94
-126 47 -29 54 -30 160 -30 93 0 119 4 159 22 69 32 123 78 155 131 26 46 27
52 32 242 3 107 4 197 3 199 -2 2 -11 -3 -21 -12 -38 -35 -104 -50 -217 -51
-105 -1 -113 0 -177 32 -64 31 -104 70 -139 132 -11 19 -15 89 -19 285 l-5
260 -805 0 -805 0 -3 -64 -3 -64 53 9 c29 5 98 9 153 9 88 0 105 -3 144 -25
85 -48 100 -116 101 -437 l0 -211 -59 26 c-36 16 -62 34 -65 45 -4 18 -7 17
-49 -7 -97 -57 -249 -68 -346 -25 -113 50 -165 164 -118 256 25 47 102 117
165 149 53 27 65 29 167 29 98 0 114 -3 148 -23 l37 -24 0 30 c0 36 -30 75
-70 92 -64 27 -224 3 -372 -55 -15 -6 -18 -1 -18 28 0 19 7 40 15 47 13 10 15
33 13 114 l-3 101 -105 0 -105 0 -3 -387 c-2 -301 -5 -388 -15 -387 -6 0 -37
12 -67 27 l-55 27 -3 53 -3 53 -46 -51 c-130 -144 -254 -140 -409 14 -84 85
-117 147 -122 234 -4 52 0 71 22 116 59 121 160 196 265 196 78 0 128 -28 216
-122 l75 -80 0 156 0 156 -320 0 -320 0 0 45 0 45 315 0 315 0 0 926 0 926
-42 -31 c-60 -44 -174 -158 -210 -209 -16 -24 -45 -77 -64 -118 l-35 -74 -47
27 c-44 26 -129 78 -234 145 l-46 30 13 38 c20 56 54 120 92 172 l34 47 -22
52 -22 51 -101 -4 c-116 -5 -168 -24 -254 -90 -100 -77 -172 -213 -172 -324 0
-201 190 -483 378 -559 88 -36 370 -210 359 -221 -15 -15 -317 151 -551 303
-265 173 -405 319 -483 503 -24 56 -27 79 -28 170 0 98 2 109 32 170 42 87
138 179 230 222 55 26 83 33 154 36 125 6 205 -20 372 -121 73 -44 144 -87
158 -95 24 -15 28 -13 100 42 80 61 227 140 327 176 l63 23 -3 136 -3 136
-850 0 -850 0 -3 -852 -2 -852 -53 30 c-28 17 -103 63 -164 102 l-113 72 0
748 0 747 -140 0 -140 0 0 -850 c0 -467 -2 -850 -5 -850 -8 0 -298 180 -313
195 -10 9 -13 86 -12 358 l0 347 -184 0 -184 0 -4 -132 c-3 -111 -8 -140 -26
-174 -68 -132 -182 -181 -292 -124 -72 37 -312 190 -343 219 -88 80 -91 242
-7 343 51 62 99 78 228 78 l112 0 -2 298 -3 297 -195 5 c-139 4 -202 9 -220
19 -40 22 -270 173 -270 177 0 2 1492 4 3316 4 l3315 0 122 -76z m-1665 -2203
c88 -35 108 -60 147 -184 41 -131 42 -147 16 -147 -15 0 -27 16 -46 59 -30 67
-55 94 -122 131 -45 25 -57 45 -89 143 -7 23 35 22 94 -2z m-2988 -152 c208
-78 356 -134 455 -173 61 -24 154 -60 208 -81 53 -20 97 -40 97 -43 0 -4 -26
-19 -59 -34 -39 -19 -78 -49 -122 -96 -54 -57 -70 -82 -96 -152 -17 -47 -34
-103 -37 -125 -7 -46 5 -26 25 45 37 133 143 265 254 316 62 30 92 30 144 2
94 -50 106 -184 31 -343 -52 -109 -192 -241 -277 -259 -71 -16 -147 30 -160
96 -3 16 -9 28 -14 28 -7 0 0 -33 16 -72 4 -10 4 -18 0 -18 -4 0 -51 31 -104
68 -53 38 -143 99 -200 137 -57 37 -130 87 -161 111 -31 24 -108 78 -171 119
-63 42 -129 91 -146 108 -31 29 -33 36 -33 95 0 112 76 229 186 286 53 27 52
27 164 -15z m3125 -462 c3 -6 4 -164 3 -349 l-3 -338 -62 40 -63 39 0 304 c0
167 3 307 7 310 12 13 113 8 118 -6z m626 -9 c90 -26 164 -131 140 -198 -15
-44 -65 -105 -108 -131 l-36 -22 -53 59 c-29 32 -53 64 -54 70 0 6 14 14 31
18 64 12 128 103 101 142 -23 35 -93 44 -147 18 -43 -20 -126 -108 -156 -165
-23 -41 -24 -56 -27 -244 -1 -110 -5 -205 -7 -212 -3 -8 -27 1 -72 25 l-68 37
-3 298 -2 298 72 -3 c72 -3 73 -3 76 -31 3 -27 4 -28 22 -12 56 50 208 78 291
53z m-3568 -275 c339 -233 322 -223 393 -223 103 0 197 60 289 186 26 35 52
64 57 64 5 0 60 -7 121 -16 180 -25 251 -54 283 -115 17 -35 12 -57 -22 -99
-43 -50 -17 -77 102 -109 55 -15 80 -42 64 -71 -13 -25 -99 -66 -169 -81 -169
-36 -639 -51 -791 -25 -295 51 -380 72 -380 96 0 6 12 29 27 51 42 63 31 71
-127 91 -74 9 -151 24 -172 34 -46 21 -80 65 -80 102 0 42 87 114 191 156 47
19 90 35 94 36 5 0 59 -35 120 -77z m-203 -453 c0 -5 -4 -10 -10 -10 -5 0 -10
5 -10 10 0 6 5 10 10 10 6 0 10 -4 10 -10z m-46 -16 c23 -9 20 -31 -5 -39 -47
-15 -108 13 -82 38 8 9 66 9 87 1z m1281 -85 c72 -34 96 -87 57 -122 -21 -19
-104 -37 -171 -37 -49 0 -131 32 -131 50 0 6 14 19 31 28 17 9 41 25 53 34 20
17 20 19 4 32 -34 26 -20 36 47 36 46 0 79 -6 110 -21z m-397 -56 c2 -8 -6
-13 -22 -13 -17 0 -26 5 -26 16 0 19 41 16 48 -3z m642 -28 c7 -8 22 -15 34
-15 30 0 61 -24 51 -40 -18 -30 -125 18 -125 57 0 18 25 17 40 -2z m-80 -30
c5 -14 14 -25 20 -25 5 0 10 -7 10 -15 0 -16 -36 -20 -56 -7 -16 10 -12 72 4
72 7 0 17 -11 22 -25z m-557 -30 c-4 -15 -36 -12 -41 3 -3 9 3 13 19 10 13 -1
23 -7 22 -13z"/>
<path d="M2550 6441 l0 -301 183 2 182 3 0 293 0 294 -182 5 -183 5 0 -301z"/>
<path d="M6853 6376 c-141 -34 -257 -130 -321 -263 -36 -75 -37 -82 -37 -188
0 -102 2 -114 30 -170 l30 -60 53 -3 c172 -10 366 107 440 265 25 54 27 67 27
198 0 127 -2 145 -23 188 l-24 47 -61 -1 c-34 0 -85 -6 -114 -13z"/>
<path d="M5273 3900 c-110 -63 -163 -141 -163 -240 0 -103 58 -180 136 -180
51 0 130 47 193 117 106 115 131 205 75 264 -71 75 -155 88 -241 39z"/>
<path d="M6053 3709 c-85 -33 -177 -139 -159 -184 8 -23 68 -45 120 -45 100 0
201 36 297 106 58 42 66 60 39 89 -49 53 -203 70 -297 34z"/>
</g>
</svg>
